<?xml version="1.0" encoding="utf-8"?>
<!-- Generator: Adobe Illustrator 26.0.0, SVG Export Plug-In . SVG Version: 6.00 Build 0)  -->

<svg version="1.1" id="Layer_1" xmlns="http://www.w3.org/2000/svg" xmlns:xlink="http://www.w3.org/1999/xlink" x="0px" y="0px"
	 viewBox="0 0 1000 1000" style="enable-background:new 0 0 1000 1000;" xml:space="preserve">
<style type="text/css">
	.st0{fill:#000000;}
	.st1{fill:#36E668;}
</style>
<rect x="-16.74" y="-10.38" width="2033.47" height="0"/>
<g>
	<g>
		<path class="st0" d="M351.22,988.07c0,7.46-6.13,13.71-13.71,13.71c-2.12,0-4.26-0.53-6.13-1.46c1.59,7.72,9.99,12.12,9.99,12.12
			s-17.57-5.72-17.57-24.9c0-2.53,0.8-4.93,2.14-6.92c2.4-3.87,6.79-6.39,11.58-6.39c5.72,0,10.52,3.46,12.65,8.52
			c0.66,1.59,1.06,3.33,1.06,5.19V988.07z"/>
		<path class="st0" d="M393.3,920.89l-2.27,1.6v58.53c0,20.24-21.3,34.48-39.81,32.36c0,0,15.71-3.46,15.71-30.89v-60l-2.27-1.6
			H393.3z"/>
		<g>
			<path class="st1" d="M445.93,956.75c-3.11,11.55-21.43,3.11-24.42,1.78c19.76,14.88,24.65,38.86,24.65,38.86v-2.89L445.93,956.75
				z M445.93,1046.34c-3.44,3-12.1,8.99-24.09,8.66c1,1.89,2.22,4,3.77,6.22c12.43-3.55,18.65-11.1,20.98-14.54
				c0.44-0.78,0.78-1.33,0.89-1.66C447.27,1045.23,446.71,1045.78,445.93,1046.34z M393.42,1027.35c-0.67-5.22-0.89-10.1-0.89-14.21
				v-17.21c-4.22,11.21-15.1,19.32-26.76,21.76c3.11,37.19,29.86,44.3,42.63,45.07l-0.11-10.88
				C398.97,1047.56,394.42,1035.9,393.42,1027.35z M394.42,959.52v15.1c2.33-10.55,6.77-14.65,12.99-17.87
				C404.08,956.75,399.42,957.52,394.42,959.52z"/>
		</g>
		<path class="st0" d="M483.98,1050.27c-0.53,9.72-4.39,18.64-10.92,25.16c-3.33,3.33-6.26,5.59-9.31,7.32
			c2.53-1.46,9.18-19.44,1.06-30.76c-4.13-5.86-10.92-9.05-17.31-11.45c-8.38-3.33-17.3-5.59-24.63-11.05
			c-6.92-4.93-11.18-12.78-11.85-21.3c-0.53-6.53,0.93-13.45,4.26-19.17c2.4-4.26,7.2-8.92,13.45-12.52c0,0-2.8,3.73-3.07,10.39
			c-0.26,8.66,3.2,15.58,9.05,20.51c3.6,2.93,7.86,4.66,12.12,6.13c9.32,2.93,19.31,4.92,27.03,11.45c3.2,2.66,5.72,5.86,7.33,9.58
			C483.32,1039.09,484.12,1044.41,483.98,1050.27z"/>
		<path class="st0" d="M415.28,1049.21v2.64l0.27,30.91c3.6-9.11,27.83-0.96,28.23-0.72
			C420.21,1071.02,415.28,1049.21,415.28,1049.21z"/>
		<path class="st0" d="M478.4,976.2c-6.52,5.84-26.1,0-26.36-0.13c24.76,13.71,26.5,34.62,26.5,34.62v-22.77L478.4,976.2z"/>
	</g>
	<g>
		<g>
			<g>
				<path class="st0" d="M616.92,928.29h-28.35v-4.98h33.96v46.12c0,18.2-12.48,29.1-29.3,29.1c-16.82,0-29.2-11.85-29.2-29.1h5.3
					c0,14.07,10.26,23.8,23.9,23.8c13.64,0,23.7-8.46,23.7-23.8V928.29z"/>
				<path class="st0" d="M710.44,997.36l-8.14-18.2h-44.21l-8.05,18.2h-6.13l33.21-74.05h6.24l33.22,74.05H710.44z M700.08,973.87
					l-19.89-45.06l-19.89,45.06H700.08z"/>
				<path class="st0" d="M739.1,923.31h53.64v2.01l-47.71,66.44h47.71v5.6h-56.18v-2.44l47.09-66.32H739.1V923.31z"/>
				<path class="st0" d="M815.91,997.36v-74.05h5.62v74.05H815.91z"/>
				<path class="st0" d="M849.86,923.31h53.64v2.01l-47.71,66.44h47.71v5.6h-56.18v-2.44l47.09-66.32h-44.55V923.31z"/>
				<path class="st0" d="M932.17,922.89v27.08h-4.65v-27.08H932.17z"/>
				<path class="st0" d="M1009.41,937.59c-5.4-8.68-14.08-9.95-22.44-10.05c-8.67,0-22.41,3.17-22.41,15.02
					c0,9.42,10.16,11.64,22.63,13.98c14.28,2.74,29.1,5.28,29.1,21.26c-0.1,16.71-16.93,20.73-29.31,20.73
					c-11.53,0-24.65-4.76-30.35-16.08l5.08-2.54c4.55,8.99,16.18,13.43,25.27,13.43c9.1,0,23.59-2.54,23.59-15.64
					c0.1-11.12-12.16-13.54-24.33-15.87c-13.54-2.64-27.4-5.4-27.4-19.04c-0.32-15.66,15.98-20.53,28.13-20.53
					c10.59,0,19.79,1.69,27.08,12.59L1009.41,937.59z"/>
				<path class="st0" d="M1143.97,987.1c-7.41,7.4-17.25,11.1-26.98,11.1c-24.97,0-37.98-17.45-38.08-37.44
					c-0.22-19.79,12.69-38.3,38.08-38.3c9.73,0,19.57,3.71,26.98,11.1l-3.92,3.39c-6.35-6.35-14.7-9.41-23.06-9.41
					c-21.58,0-32.7,15.23-32.58,33.01c0.21,17.35,11.21,32.38,32.58,32.38c8.36,0,16.82-3.18,23.16-9.42L1143.97,987.1z"/>
				<path class="st0" d="M1174.64,923.31v68.65h41.69v5.4h-47.39v-74.05H1174.64z"/>
				<path class="st0" d="M1245.41,957.48h43.38v5.18h-43.38v29.2h46.77v5.5h-52.37v-74.05h51.1v5.4h-45.5V957.48z"/>
				<path class="st0" d="M1376.39,997.36l-8.14-18.2h-44.21l-8.05,18.2h-6.13l33.21-74.05h6.24l33.22,74.05H1376.39z
					 M1366.03,973.87l-19.89-45.06l-19.89,45.06H1366.03z"/>
				<path class="st0" d="M1407.28,923.31l49.83,61.26v-61.26h5.6v74.05h-2.22l-49.93-61.14v61.14h-5.72v-74.05H1407.28z"/>
				<path class="st0" d="M1492.01,997.36v-74.05h5.62v74.05H1492.01z"/>
				<path class="st0" d="M1529.15,923.31l49.83,61.26v-61.26h5.6v74.05h-2.22l-49.93-61.14v61.14h-5.72v-74.05H1529.15z"/>
				<path class="st0" d="M1672.08,936.95c-6.46-6.35-15.45-9.51-23.8-9.51c-21.7,0-32.8,15.86-32.7,33.01
					c0,17.45,11.1,32.48,32.7,32.48c7.92,0,16.18-2.76,22.53-8.58v-20.73h-25.81v-4.98h31.21v27.72
					c-7.73,7.72-16.93,11.95-27.93,11.95c-25.18,0-38.2-17.55-38.2-37.76c-0.1-23.17,15.66-38.3,38.2-38.3
					c9.72,0,19.57,3.71,27.08,11.12L1672.08,936.95z"/>
			</g>
		</g>
		<g>
			<path class="st0" d="M582.12,1063.16l-0.41-0.08c-7.67-1.44-12.71-2.74-12.71-7.75c0-2.03,0.7-3.56,1.78-4.72c0,0,0,0,0.01,0
				c3.23-3.48,9.79-3.62,10.76-3.62c4.76,0.06,9.58,0.8,12.58,5.63l0.1,0.17l2.99-1.77l-0.12-0.18c-4.03-6-9.13-7.23-15.55-7.23
				c-1.4,0-2.57,0.4-3.87,0.6c-0.66,0.1-1.27,0.15-1.93,0.3c-1.45,0.35-2.65,0.82-3.84,1.42c-0.61,0.29-1.13,0.63-1.68,1
				c-0.65,0.44-1.56,0.7-2.07,1.23c-0.28,0.28-0.17,0.76-0.4,1.06c-0.99,1.25-1.51,2.83-1.76,4.64c-0.08,0.6-0.62,0.97-0.61,1.61
				c0,7.95,7.99,9.5,15.72,11.02c6.74,1.3,13.72,2.62,13.67,8.82c0,7.86-9.25,8.71-13.22,8.71c-1.15,0-2.37-0.17-3.6-0.43
				c0.63,0.12,1.23,0.36,1.84,0.42c-1.45-0.15-2.89-0.48-4.36-0.99c0.58,0.2,1.12,0.25,1.71,0.39c-2.01-0.51-3.92-1.43-5.64-2.6
				c0.39,0.27,0.62,0.7,1.04,0.93c-1.8-1.01-3.31-2.36-4.46-4.02c0.22,0.32,0.6,0.47,0.85,0.76c-0.55-0.64-1.17-1.23-1.55-1.99
				l-0.09-0.18l-3.24,1.62l0.09,0.18c3.44,6.82,11.26,9.25,17.43,9.25c2.14,0,6.82-0.43,10.74-2.46c0.29-0.15,0.49-0.39,0.76-0.56
				c1.33-0.81,2.55-1.72,3.45-3.06c0.21-0.31,0.19-0.8,0.36-1.13c0.72-1.4,1.52-2.75,1.53-4.76
				C598.39,1066.26,590.12,1064.68,582.12,1063.16z M573.96,1045.16c-0.02,0.01-0.04,0.02-0.06,0.02
				C573.93,1045.17,573.94,1045.16,573.96,1045.16z M568.42,1048.41c0.12-0.12,0.35-0.17,0.48-0.28c-0.19,0.18-0.39,0.34-0.57,0.53
				C568.39,1048.59,568.36,1048.48,568.42,1048.41z"/>
			<path class="st0" d="M577.13,1083.38c0.28,0.07,0.54,0.13,0.81,0.18C577.67,1083.51,577.41,1083.45,577.13,1083.38z"/>
			<path class="st0" d="M571.49,1080.78c-0.97-0.67-1.82-1.43-2.58-2.32C569.66,1079.34,570.5,1080.11,571.49,1080.78z"/>
			<polygon class="st0" points="636.24,1066.94 660.89,1066.94 660.89,1063.62 636.24,1063.62 636.24,1047.65 662.09,1047.65 
				662.09,1044.21 632.68,1044.21 632.68,1086.66 662.81,1086.66 662.81,1083.15 636.24,1083.15 			"/>
			<path class="st0" d="M726.68,1066.76c2.31-2.32,3.55-5.62,3.53-9.26c-0.06-6.41-4.48-13.3-14.03-13.3h-18.7v42.46h3.63v-15.93
				h11.19l14.5,15.86l4.85,0.06l-14.85-16.11C720.89,1070.47,724.3,1069.16,726.68,1066.76z M701.12,1067.29v-19.7h15.07
				c3,0,5.54,0.97,7.36,2.82c1.77,1.8,2.76,4.35,2.73,7.03c-0.08,6.35-3.78,9.85-10.45,9.85H701.12z M726.32,1058.35
				c-0.18,2.37-0.87,4.44-2.24,5.98C725.4,1062.84,726.12,1060.81,726.32,1058.35z M722.71,1065.4c-1.46,1.07-3.35,1.74-5.78,1.91
				C719.28,1067.13,721.21,1066.49,722.71,1065.4z"/>
			<polygon class="st0" points="780.32,1082.34 764.92,1044.32 764.87,1044.21 760.97,1044.21 778.4,1086.66 778.45,1086.78 
				782.18,1086.78 799.54,1044.47 799.66,1044.21 795.76,1044.21 			"/>
			<rect x="832.68" y="1044.21" class="st0" width="3.56" height="42.46"/>
			<path class="st0" d="M892.47,1046.99c4.95,0,9.55,1.89,12.96,5.3l0.13,0.13l2.53-2.18l-0.15-0.15
				c-4.05-4.04-9.68-6.36-15.46-6.36c-6.41,0-11.86,2.09-15.77,6.04c-3.98,4.03-6.13,9.68-6.05,15.91
				c0.04,10.69,6.81,21.48,21.82,21.48c5.77,0,11.41-2.32,15.46-6.37l0.14-0.14l-2.44-2.31l-0.14,0.13
				c-3.44,3.36-8.18,5.3-13.03,5.3c-12.49,0-18.2-9.14-18.32-18.2c-0.03-5.42,1.8-10.25,5.1-13.58
				C882.5,1048.72,887.08,1046.99,892.47,1046.99z"/>
			<polygon class="st0" points="946.6,1083.15 946.6,1066.94 971.25,1066.94 971.25,1063.62 946.6,1063.62 946.6,1047.65 
				972.45,1047.65 972.45,1044.21 943.03,1044.21 943.03,1086.66 973.17,1086.66 973.17,1083.15 			"/>
		</g>
	</g>
	<rect x="518.34" y="907.62" class="st0" width="2.9" height="184.76"/>
</g>
</svg>
