<svg width="21" height="19" viewBox="0 0 21 19" fill="none" xmlns="http://www.w3.org/2000/svg">
<path d="M9.72581 0.92705C10.0252 0.00573897 11.3286 0.00574064 11.6279 0.927051L13.2324 5.86505C13.3663 6.27707 13.7502 6.55603 14.1834 6.55603H19.3756C20.3443 6.55603 20.7471 7.79565 19.9633 8.36505L15.7628 11.4169C15.4123 11.6715 15.2657 12.1229 15.3996 12.5349L17.004 17.4729C17.3034 18.3942 16.2489 19.1604 15.4652 18.591L11.2647 15.5391C10.9142 15.2845 10.4396 15.2845 10.0891 15.5391L5.88857 18.591C5.10486 19.1604 4.05038 18.3942 4.34973 17.4729L5.95418 12.5349C6.08806 12.1229 5.9414 11.6715 5.59091 11.4169L1.3904 8.36505C0.606688 7.79565 1.00946 6.55603 1.97819 6.55603H7.1703C7.60353 6.55603 7.98749 6.27707 8.12136 5.86505L9.72581 0.92705Z" fill="#FAA500"/>
</svg>
