<svg width="21" height="19" viewBox="0 0 21 19" fill="none" xmlns="http://www.w3.org/2000/svg">
<path d="M9.43135 0.92705C9.7307 0.00573904 11.0341 0.00574057 11.3335 0.927051L12.9379 5.86505C13.0718 6.27707 13.4557 6.55603 13.889 6.55603H19.0811C20.0498 6.55603 20.4526 7.79565 19.6689 8.36505L15.4684 11.4169C15.1179 11.6715 14.9712 12.1229 15.1051 12.5349L16.7095 17.4729C17.0089 18.3942 15.9544 19.1604 15.1707 18.591L10.9702 15.5391C10.6197 15.2845 10.1451 15.2845 9.79462 15.5391L5.59411 18.591C4.81039 19.1604 3.75592 18.3942 4.05527 17.4729L5.65972 12.5349C5.79359 12.1229 5.64694 11.6715 5.29645 11.4169L1.09594 8.36505C0.312224 7.79565 0.714999 6.55603 1.68372 6.55603H6.87584C7.30907 6.55603 7.69302 6.27707 7.8269 5.86505L9.43135 0.92705Z" fill="#ABABAB"/>
</svg>
